<svg version="1.2" xmlns="http://www.w3.org/2000/svg" viewBox="0 0 173 106" width="173" height="106">
	<title>9of10-svg</title>
	<style>
		.s0 { fill: #00609c } 
	</style>
	<path id="Layer" fill-rule="evenodd" class="s0" d="m73.1 85.7q-3 0-5.8-0.5-2.8-0.3-4.9-1v-4.3q2.1 0.8 4.9 1.3 2.8 0.5 5.9 0.5 4.2 0 8.1-1.7 4-1.7 7.4-5.3 3.4-3.6 6.1-9.4 2.7-5.8 4.7-13.8h-0.3q-1.5 2.3-4 4.3-2.5 2.1-5.8 3.3-3.2 1.3-7.3 1.3-4.8 0-8.3-2-3.4-1.9-5.2-5.5-1.8-3.6-1.8-8.3 0-4.2 1-8 1.1-3.7 3.1-6.8 1.9-3.1 4.7-5.4 2.7-2.3 6-3.5 3.4-1.3 7.2-1.3 5.5 0 9.1 2.5 3.7 2.5 5.5 6.9 1.8 4.4 1.8 10.3 0 4.8-1 10.3-1 5.5-2.9 10.9-1.9 5.3-4.5 10-2.6 4.6-5.8 7.8-2 1.9-4.2 3.3-2.1 1.5-4.4 2.4-2.3 0.9-4.6 1.2-2.4 0.5-4.7 0.5zm9.6-29.1q4.4 0 7.9-1.7 3.7-1.7 6.1-4.5 2.4-2.8 3.4-5.9 0.3-1.3 0.5-2.7 0.2-1.4 0.2-3.2 0-4-1.2-7.4-1.2-3.5-3.9-5.5-2.6-2.2-7.1-2.2-4.1 0-7.3 1.8-3.2 1.7-5.5 4.6-2.2 3-3.4 6.7-1.2 3.7-1.2 7.8 0 5.7 3.1 9 3.1 3.2 8.4 3.2z"/>
	<path id="Layer" fill-rule="evenodd" class="s0" d="m51.3 92.4q-1.3 0-2.1-0.5-0.8-0.6-1.1-1.5-0.4-0.8-0.4-2 0-0.8 0.1-1.6 0.2-0.7 0.4-1.4 0.3-0.8 0.7-1.4 0.4-0.5 1-1 0.5-0.4 1.2-0.7 0.7-0.2 1.5-0.2 1.6 0 2.6 1 0.9 1 0.9 2.9 0 0.7-0.1 1.4-0.1 0.7-0.4 1.4-0.2 0.8-0.6 1.4-0.4 0.6-0.9 1.1-0.5 0.5-1.2 0.8-0.7 0.3-1.6 0.3zm0-0.7q0.7 0 1.3-0.2 0.6-0.3 1-0.7 0.5-0.4 0.8-1 0.3-0.6 0.6-1.2 0.2-0.7 0.3-1.3 0.1-0.7 0.1-1.3 0-1.5-0.7-2.4-0.7-0.9-2.1-0.9-0.8 0-1.4 0.3-0.5 0.2-1 0.6-0.5 0.4-0.8 1-0.3 0.5-0.6 1.2-0.2 0.6-0.3 1.3-0.1 0.6-0.1 1.3 0 1 0.3 1.8 0.3 0.7 1 1.1 0.6 0.4 1.6 0.4zm10 0.7q-0.9 0-1.6-0.3-0.7-0.4-1-1-0.4-0.6-0.4-1.5 0-0.2 0-0.5 0.1-0.3 0.1-0.6l1.4-6.3h0.7l-1.4 6.3q0 0.3 0 0.6-0.1 0.3-0.1 0.5 0 1 0.6 1.6 0.7 0.5 1.8 0.5 0.9 0 1.5-0.3 0.7-0.3 1.1-1 0.5-0.7 0.7-1.7l1.4-6.5h0.7l-1.4 6.6q-0.2 1.2-0.8 2-0.5 0.8-1.3 1.2-0.9 0.4-2 0.4zm8.2-0.2l2-9.3h-3l0.2-0.7h6.7l-0.2 0.7h-3l-2 9.3zm14 0.2q-1.3 0-2.1-0.5-0.8-0.6-1.2-1.5-0.3-0.8-0.3-2 0-0.8 0.1-1.6 0.2-0.7 0.4-1.4 0.3-0.8 0.7-1.4 0.4-0.5 1-1 0.5-0.4 1.2-0.7 0.7-0.2 1.5-0.2 1.6 0 2.6 1 0.9 1 0.9 2.9 0 0.7-0.1 1.4-0.1 0.7-0.4 1.4-0.2 0.8-0.6 1.4-0.4 0.6-0.9 1.1-0.5 0.5-1.2 0.8-0.8 0.3-1.6 0.3zm0-0.7q0.7 0 1.3-0.2 0.6-0.3 1-0.7 0.5-0.4 0.8-1 0.3-0.6 0.5-1.2 0.3-0.7 0.4-1.3 0.1-0.7 0.1-1.3 0-1.5-0.7-2.4-0.7-0.9-2.1-0.9-0.8 0-1.4 0.3-0.6 0.2-1 0.6-0.5 0.4-0.8 1-0.3 0.5-0.6 1.2-0.2 0.6-0.3 1.3-0.1 0.6-0.1 1.3 0 1 0.3 1.8 0.3 0.7 1 1.1 0.6 0.4 1.6 0.4zm6.5 0.5l2.1-10h5l-0.1 0.7h-4.3l-1 4.2h4.1l-0.1 0.7h-4.1l-0.9 4.4zm13.8 0l1.5-7.2q0.1-0.4 0.2-0.8 0.1-0.4 0.2-0.7 0-0.3 0.1-0.5-0.2 0.2-0.4 0.4-0.2 0.1-0.5 0.3l-1.6 1.1-0.4-0.6 3.1-2h0.6l-2.1 10zm8.4 0.2q-1.1 0-1.7-0.8-0.7-0.8-0.7-2.4 0-0.7 0.1-1.5 0.1-0.8 0.3-1.6 0.2-0.8 0.6-1.5 0.3-0.8 0.7-1.3 0.5-0.6 1.1-0.9 0.6-0.3 1.3-0.3 0.7 0 1.1 0.2 0.5 0.2 0.8 0.6 0.3 0.4 0.4 0.9 0.2 0.6 0.2 1.3 0 0.8-0.2 1.7-0.1 0.9-0.3 1.7-0.2 0.8-0.6 1.5-0.3 0.7-0.7 1.2-0.5 0.6-1.1 0.9-0.6 0.3-1.3 0.3zm0.1-0.6q0.6 0 1-0.3 0.5-0.3 0.8-0.8 0.4-0.5 0.7-1.1 0.3-0.7 0.5-1.5 0.2-0.7 0.3-1.5 0-0.8 0-1.5 0-1.1-0.4-1.8-0.4-0.6-1.3-0.6-0.6 0-1.1 0.3-0.4 0.3-0.8 0.8-0.4 0.5-0.7 1.1-0.2 0.7-0.4 1.4-0.2 0.8-0.3 1.5-0.1 0.7-0.1 1.4 0 1.3 0.5 1.9 0.4 0.7 1.3 0.7z"/>
</svg>