<svg width="180" height="173" viewBox="0 0 180 173" fill="none" xmlns="http://www.w3.org/2000/svg">
<path d="M80.0684 94.6875C78.1055 94.6875 76.1865 94.541 74.3115 94.248C72.4658 93.9844 70.8398 93.6475 69.4336 93.2373V88.9307C70.7812 89.4287 72.3926 89.8535 74.2676 90.2051C76.1426 90.5566 78.1055 90.7324 80.1562 90.7324C82.998 90.7324 85.7227 90.1611 88.3301 89.0186C90.9668 87.876 93.4131 86.1035 95.6689 83.7012C97.9541 81.2695 100.005 78.1348 101.821 74.2969C103.638 70.459 105.19 65.8447 106.479 60.4541H106.216C105.19 62.0068 103.843 63.4717 102.173 64.8486C100.532 66.1963 98.6133 67.2949 96.416 68.1445C94.248 68.9941 91.8018 69.4189 89.0771 69.4189C85.8838 69.4189 83.1299 68.7598 80.8154 67.4414C78.5303 66.123 76.7871 64.2773 75.5859 61.9043C74.3848 59.5312 73.7842 56.7627 73.7842 53.5986C73.7842 50.7861 74.1357 48.1348 74.8389 45.6445C75.542 43.1543 76.5527 40.8691 77.8711 38.7891C79.1895 36.709 80.7568 34.9219 82.5732 33.4277C84.3896 31.9043 86.4111 30.7324 88.6377 29.9121C90.8643 29.0625 93.2373 28.6377 95.7568 28.6377C99.4482 28.6377 102.51 29.458 104.941 31.0986C107.402 32.7393 109.233 35.0391 110.435 37.998C111.636 40.9277 112.236 44.3555 112.236 48.2812C112.236 51.5039 111.885 54.9463 111.182 58.6084C110.508 62.2412 109.541 65.8594 108.281 69.4629C107.021 73.0371 105.513 76.377 103.755 79.4824C102.026 82.5586 100.093 85.1514 97.9541 87.2607C96.6357 88.5791 95.2588 89.707 93.8232 90.6445C92.3877 91.582 90.9082 92.3584 89.3848 92.9736C87.8906 93.5596 86.3525 93.9844 84.7705 94.248C83.2178 94.541 81.6504 94.6875 80.0684 94.6875ZM89.7363 65.5957C92.6367 65.5957 95.2734 65.0244 97.6465 63.8818C100.049 62.7393 102.056 61.2451 103.667 59.3994C105.308 57.5537 106.436 55.5762 107.051 53.4668C107.314 52.6172 107.505 51.7236 107.622 50.7861C107.739 49.8486 107.798 48.7793 107.798 47.5781C107.798 44.9121 107.402 42.4365 106.611 40.1514C105.82 37.8662 104.531 36.0352 102.744 34.6582C100.957 33.252 98.584 32.5488 95.625 32.5488C92.9004 32.5488 90.4541 33.1201 88.2861 34.2627C86.1475 35.4053 84.3311 36.958 82.8369 38.9209C81.3428 40.8838 80.2002 43.1104 79.4092 45.6006C78.6182 48.0908 78.2227 50.6982 78.2227 53.4229C78.2227 57.2314 79.248 60.2197 81.2988 62.3877C83.3496 64.5264 86.1621 65.5957 89.7363 65.5957Z" fill="#00609C"/>
<path d="M58.2597 101.374C57.4257 101.374 56.7444 101.201 56.2157 100.854C55.6871 100.508 55.2997 100.038 55.0536 99.446C54.8075 98.849 54.6845 98.1746 54.6845 97.4226C54.6845 96.8848 54.73 96.3585 54.8212 95.8435C54.9169 95.324 55.0559 94.8272 55.2382 94.3533C55.4205 93.8793 55.6483 93.4441 55.9218 93.0476C56.1998 92.6511 56.5211 92.307 56.8856 92.0154C57.2548 91.7192 57.6649 91.4913 58.1161 91.3318C58.5718 91.1677 59.0731 91.0857 59.62 91.0857C60.691 91.0857 61.5386 91.4161 62.163 92.0769C62.7919 92.7377 63.1063 93.7153 63.1063 95.0095C63.1063 95.4516 63.0676 95.9141 62.9901 96.3972C62.9172 96.8803 62.801 97.3611 62.6415 97.8396C62.482 98.3136 62.2746 98.7625 62.0194 99.1863C61.7688 99.6101 61.4634 99.9861 61.1034 100.314C60.7479 100.642 60.3332 100.902 59.8593 101.094C59.3899 101.28 58.8567 101.374 58.2597 101.374ZM58.287 100.745C58.7701 100.745 59.2053 100.661 59.5927 100.492C59.9846 100.323 60.331 100.091 60.6317 99.7947C60.9371 99.4985 61.1991 99.1612 61.4179 98.783C61.6366 98.4047 61.8166 98.0014 61.9579 97.573C62.0992 97.1446 62.204 96.7117 62.2724 96.2742C62.3407 95.8321 62.3749 95.4083 62.3749 95.0027C62.3749 93.9819 62.1379 93.1798 61.664 92.5964C61.1946 92.0131 60.495 91.7214 59.5653 91.7214C59.0823 91.7214 58.6425 91.8012 58.246 91.9607C57.8541 92.1156 57.5032 92.3321 57.1933 92.6101C56.8879 92.8881 56.6236 93.2117 56.4003 93.5808C56.177 93.95 55.9924 94.3464 55.8466 94.7703C55.7007 95.1941 55.5914 95.6293 55.5185 96.0759C55.4501 96.5225 55.4159 96.9646 55.4159 97.4021C55.4159 98.0675 55.5185 98.6508 55.7235 99.1521C55.9332 99.6534 56.2499 100.045 56.6737 100.328C57.0976 100.606 57.6353 100.745 58.287 100.745ZM68.3163 101.374C67.6828 101.374 67.1405 101.269 66.6894 101.059C66.2427 100.85 65.8987 100.542 65.6571 100.136C65.4201 99.7309 65.3017 99.2341 65.3017 98.6462C65.3017 98.4913 65.3131 98.3204 65.3358 98.1335C65.3632 97.9421 65.3974 97.7416 65.4384 97.532L66.7782 91.2429H67.4823L66.1493 97.5388C66.1083 97.7302 66.0764 97.9239 66.0536 98.1199C66.0308 98.3113 66.0194 98.4799 66.0194 98.6257C66.0194 99.3048 66.2245 99.8289 66.6347 100.198C67.0494 100.563 67.6213 100.745 68.3505 100.745C68.9566 100.745 69.483 100.631 69.9296 100.403C70.3762 100.175 70.7476 99.8357 71.0438 99.3845C71.3446 98.9288 71.5679 98.3591 71.7138 97.6755L73.0946 91.2429H73.7919L72.4179 97.7576C72.2447 98.5642 71.9781 99.2364 71.6181 99.7742C71.258 100.307 70.8023 100.708 70.2509 100.977C69.6994 101.242 69.0546 101.374 68.3163 101.374ZM76.5272 101.237L78.5165 91.8787H75.5155L75.6522 91.2429H82.3651L82.2353 91.8787H79.2274L77.245 101.237H76.5272ZM90.4335 101.374C89.5995 101.374 88.9182 101.201 88.3895 100.854C87.8609 100.508 87.4735 100.038 87.2274 99.446C86.9813 98.849 86.8583 98.1746 86.8583 97.4226C86.8583 96.8848 86.9039 96.3585 86.995 95.8435C87.0907 95.324 87.2297 94.8272 87.412 94.3533C87.5943 93.8793 87.8222 93.4441 88.0956 93.0476C88.3736 92.6511 88.6949 92.307 89.0595 92.0154C89.4286 91.7192 89.8388 91.4913 90.2899 91.3318C90.7457 91.1677 91.247 91.0857 91.7938 91.0857C92.8648 91.0857 93.7125 91.4161 94.3368 92.0769C94.9657 92.7377 95.2802 93.7153 95.2802 95.0095C95.2802 95.4516 95.2414 95.9141 95.164 96.3972C95.091 96.8803 94.9748 97.3611 94.8153 97.8396C94.6558 98.3136 94.4485 98.7625 94.1933 99.1863C93.9426 99.6101 93.6373 99.9861 93.2772 100.314C92.9218 100.642 92.5071 100.902 92.0331 101.094C91.5637 101.28 91.0305 101.374 90.4335 101.374ZM90.4608 100.745C90.9439 100.745 91.3791 100.661 91.7665 100.492C92.1584 100.323 92.5048 100.091 92.8056 99.7947C93.1109 99.4985 93.3729 99.1612 93.5917 98.783C93.8104 98.4047 93.9905 98.0014 94.1317 97.573C94.273 97.1446 94.3778 96.7117 94.4462 96.2742C94.5145 95.8321 94.5487 95.4083 94.5487 95.0027C94.5487 93.9819 94.3117 93.1798 93.8378 92.5964C93.3684 92.0131 92.6688 91.7214 91.7392 91.7214C91.2561 91.7214 90.8163 91.8012 90.4198 91.9607C90.0279 92.1156 89.677 92.3321 89.3671 92.6101C89.0617 92.8881 88.7974 93.2117 88.5741 93.5808C88.3508 93.95 88.1662 94.3464 88.0204 94.7703C87.8746 95.1941 87.7652 95.6293 87.6923 96.0759C87.6239 96.5225 87.5897 96.9646 87.5897 97.4021C87.5897 98.0675 87.6923 98.6508 87.8974 99.1521C88.107 99.6534 88.4237 100.045 88.8476 100.328C89.2714 100.606 89.8091 100.745 90.4608 100.745ZM96.9423 101.237L99.0614 91.2429H104.1L103.976 91.8787H99.6356L98.7265 96.1375H102.821L102.678 96.7732H98.5897L97.6464 101.237H96.9423ZM110.76 101.237L112.298 93.991C112.357 93.713 112.414 93.4532 112.469 93.2117C112.528 92.9656 112.583 92.7423 112.633 92.5417C112.683 92.3367 112.726 92.1635 112.763 92.0222C112.635 92.1407 112.503 92.2501 112.366 92.3503C112.234 92.446 112.072 92.5554 111.881 92.6785L110.233 93.7654L109.898 93.239L112.968 91.2429H113.59L111.464 101.237H110.76ZM119.21 101.374C118.458 101.374 117.865 101.107 117.433 100.574C117 100.041 116.783 99.2615 116.783 98.2361C116.783 97.7439 116.815 97.2266 116.879 96.6843C116.947 96.142 117.052 95.6042 117.193 95.071C117.335 94.5333 117.515 94.0274 117.733 93.5535C117.957 93.075 118.219 92.6511 118.519 92.282C118.825 91.9083 119.176 91.6166 119.572 91.407C119.969 91.1928 120.413 91.0857 120.905 91.0857C121.32 91.0857 121.678 91.1541 121.978 91.2908C122.284 91.4275 122.537 91.6257 122.737 91.8855C122.938 92.1453 123.086 92.4597 123.182 92.8289C123.282 93.1934 123.332 93.6082 123.332 94.073C123.332 94.6427 123.295 95.2192 123.223 95.8025C123.15 96.3813 123.038 96.9441 122.888 97.491C122.737 98.0333 122.548 98.5391 122.32 99.0085C122.097 99.4779 121.833 99.8904 121.527 100.246C121.222 100.601 120.876 100.879 120.488 101.08C120.105 101.276 119.679 101.374 119.21 101.374ZM119.271 100.765C119.641 100.765 119.978 100.672 120.283 100.485C120.593 100.294 120.871 100.032 121.117 99.699C121.368 99.3663 121.586 98.9835 121.773 98.5505C121.96 98.113 122.117 97.6459 122.245 97.1492C122.373 96.6479 122.466 96.1375 122.525 95.6179C122.589 95.0938 122.621 94.5811 122.621 94.0798C122.621 93.3279 122.48 92.7445 122.197 92.3298C121.915 91.9106 121.473 91.7009 120.871 91.7009C120.484 91.7009 120.13 91.7989 119.811 91.9949C119.497 92.1863 119.212 92.4506 118.957 92.7878C118.706 93.1251 118.488 93.5125 118.301 93.95C118.118 94.3829 117.966 94.8432 117.843 95.3308C117.724 95.8184 117.635 96.3106 117.576 96.8074C117.517 97.2996 117.487 97.7735 117.487 98.2292C117.487 99.0678 117.642 99.7013 117.952 100.13C118.262 100.553 118.702 100.765 119.271 100.765Z" fill="#00609C"/>
</svg>
